<svg width="117" height="114" viewBox="0 0 117 114" fill="none" xmlns="http://www.w3.org/2000/svg">
<g opacity="0.3">
<path d="M56.7836 0C88.1224 0 113.567 25.4447 113.567 56.7836C113.567 88.1224 88.1224 113.567 56.7836 113.567C25.4447 113.567 0 88.1224 0 56.7836C0 25.4447 25.4447 0 56.7836 0Z" fill="#F8F8FB"/>
</g>
<path d="M61.6907 24.9168C61.4051 24.6795 61.2222 24.341 61.1804 23.972C61.1385 23.603 61.2409 23.2322 61.466 22.9369L69.7751 12.0445C69.8929 11.8902 70.0404 11.7613 70.2092 11.6656C70.378 11.5699 70.5644 11.5091 70.7572 11.4874C70.9499 11.4654 71.1452 11.4828 71.3311 11.5383C71.5171 11.5939 71.69 11.6863 71.8391 11.8103L72.7165 12.5393C72.8658 12.6633 72.9884 12.8163 73.077 12.9888C73.1656 13.1615 73.2185 13.3503 73.2323 13.5438C73.2462 13.7375 73.2207 13.9317 73.1573 14.1152C73.0941 14.2987 72.9945 14.4675 72.8644 14.6114L63.6783 24.7749C63.4294 25.0505 63.0835 25.2191 62.7131 25.2456C62.3427 25.2721 61.9764 25.1542 61.6907 24.9168Z" fill="#FF6A3D"/>
<path d="M55.4968 22.0696C55.2658 21.9926 55.0735 21.8293 54.96 21.614C54.8466 21.3985 54.8208 21.1476 54.888 20.9135L57.3703 12.2803C57.4056 12.158 57.465 12.0442 57.5454 11.9454C57.6258 11.8468 57.7251 11.7653 57.8377 11.7061C57.9502 11.6468 58.0736 11.6109 58.2005 11.6005C58.3273 11.5901 58.4549 11.6055 58.5756 11.6458L59.2852 11.8822C59.406 11.9224 59.5173 11.9866 59.6126 12.071C59.7079 12.1553 59.785 12.2581 59.8397 12.373C59.8941 12.488 59.9248 12.6127 59.93 12.74C59.935 12.8671 59.9143 12.9939 59.8691 13.1128L56.6774 21.5096C56.591 21.7373 56.4198 21.9227 56.1997 22.027C55.9797 22.1315 55.7278 22.1467 55.4968 22.0696Z" fill="#FF6A3D"/>
<path d="M49.6599 24.0016C48.917 24.2102 48.0965 23.6343 47.7994 22.6961L42.5307 6.03833C42.2162 5.04281 42.61 4.02951 43.3981 3.80814L44.4963 3.49973C45.2844 3.27847 46.1486 3.93886 46.3978 4.95243L50.5687 21.9185C50.8036 22.8743 50.4027 23.793 49.6599 24.0016Z" fill="#FF6A3D"/>
<path d="M108.929 32.2767L94.0088 31.711C93.7581 31.707 93.5121 31.7795 93.3036 31.9189C93.0951 32.0583 92.9342 32.2579 92.8421 32.4912L89.6215 40.5897L76.1783 74.9077C76.0354 75.2703 75.7677 75.5701 75.4236 75.7532C75.0796 75.9365 74.6814 75.991 74.3006 75.9071L28.4545 65.7192C28.3281 65.6909 28.1967 65.6934 28.0714 65.726C27.946 65.7585 27.8301 65.8204 27.7333 65.9063C27.6364 65.9924 27.5614 66.1002 27.5144 66.2209C27.4675 66.3417 27.4498 66.472 27.4629 66.6008L27.6509 68.4493C27.6767 68.7063 27.783 68.9485 27.9545 69.1418C28.1261 69.3348 28.3542 69.4689 28.6064 69.5248L77.1129 80.304C77.6536 80.4237 78.1529 80.6846 78.5603 81.06C78.9678 81.4354 79.2688 81.9119 79.4327 82.4405L79.4552 82.5134C80.0691 84.7283 78.017 86.779 75.7693 86.3131L22.5782 74.4719C22.3054 74.4115 22.0613 74.2599 21.8865 74.042C21.7116 73.824 21.6165 73.5531 21.6166 73.2737L21.6619 28.7275C21.6617 28.4979 21.7096 28.2707 21.8028 28.061C21.896 27.851 22.0323 27.6631 22.2029 27.5094C22.3733 27.3556 22.5744 27.2394 22.7927 27.1682C23.011 27.0972 23.2418 27.0728 23.4703 27.0966L86.4968 33.604L89.7678 25.3156C89.8627 25.0811 90.0272 24.8813 90.2392 24.7433C90.4512 24.6055 90.7004 24.5358 90.9532 24.5438L109.223 25.2213C109.385 25.2269 109.544 25.2647 109.691 25.3324C109.839 25.4 109.972 25.4961 110.081 25.6152C110.191 25.7344 110.276 25.8742 110.332 26.0265C110.388 26.1788 110.412 26.3405 110.405 26.5026L110.201 31.1008C110.187 31.4251 110.045 31.7305 109.807 31.9508C109.569 32.1711 109.253 32.2883 108.929 32.2767Z" fill="#FF6A3D"/>
<path d="M26.8525 58.2381L32.0446 59.3918L34.6625 34.4075L26.8078 33.9195L26.8525 58.2381Z" fill="#1A2238"/>
<path d="M67.5889 67.2902L72.7811 68.4441L83.3425 39.7763L77.6623 38.9333L67.5889 67.2902Z" fill="#1A2238"/>
<path d="M47.6201 62.8529L52.4129 63.9179L60.0455 37.114L52.2794 36.2266L47.6201 62.8529Z" fill="#1A2238"/>
<path d="M39.1433 34.9843L46.9092 35.8717L42.4273 61.6992L37.2353 60.5455L39.1433 34.9843Z" fill="#1A2238"/>
<path d="M72.7817 38.2682L65.0157 37.3807L58.0044 65.1607L62.7971 66.2259L72.7817 38.2682Z" fill="#1A2238"/>
<path d="M110.928 24.8204L95.1868 24.2811C95.0996 24.2781 95.0264 24.3465 95.0235 24.4337L94.7624 32.055C94.7597 32.1422 94.8282 32.2152 94.9155 32.2182L110.657 32.7575C110.744 32.7606 110.817 32.6923 110.82 32.605L111.081 24.9837C111.084 24.8965 111.016 24.8233 110.928 24.8204Z" fill="#1A2238"/>
<path d="M30.9953 91.3768C34.2051 91.0861 36.5715 88.2488 36.2808 85.0392C35.9902 81.8292 33.1526 79.4626 29.9428 79.7533C26.7329 80.0439 24.3665 82.8817 24.6572 86.0918C24.9478 89.3014 27.7854 91.6674 30.9953 91.3768Z" fill="#1A2238"/>
<path d="M64.0676 100.861C67.2774 100.571 69.6437 97.7333 69.353 94.5229C69.0624 91.3134 66.2249 88.9472 63.0151 89.2379C59.8053 89.5285 57.4387 92.3659 57.7293 95.5754C58.02 98.7858 60.8578 101.152 64.0676 100.861Z" fill="#1A2238"/>
</svg>
